<svg xmlns="http://www.w3.org/2000/svg" xmlns:xlink="http://www.w3.org/1999/xlink" viewBox="0 0 295.54 255.12"><defs><style>.cls-1{fill:url(#linear-gradient);}.cls-2{fill:url(#linear-gradient-2);}</style><linearGradient id="linear-gradient" y1="127.56" x2="232.91" y2="127.56" gradientUnits="userSpaceOnUse"><stop offset="0.15" stop-color="#29abe2"/><stop offset="1" stop-color="aqua"/></linearGradient><linearGradient id="linear-gradient-2" x1="190.51" y1="144.89" x2="239.77" y2="61.93" gradientUnits="userSpaceOnUse"><stop offset="0.01" stop-color="#a82884"/><stop offset="1" stop-color="#ff47ed"/></linearGradient></defs><g id="Layer_2" data-name="Layer 2"><g id="Layer_1-2" data-name="Layer 1"><path class="cls-1" d="M158.92,148.16h0C127.77,98,80.39,22,80.39,22s0,0,0,0A42.91,42.91,0,0,0,5.46,63.84L110.22,233.11v0c16.61,29.74,58.94,28.9,75.08,0v0l47.6-76.9C188.9,196,158.92,148.16,158.92,148.16Z"/><path class="cls-2" d="M290.08,63.84A42.91,42.91,0,0,0,215.15,22v0s-37.23,59.71-67.38,108.21l11.15,17.94s30,47.86,74,8.05Z"/></g></g></svg>